<svg xmlns="http://www.w3.org/2000/svg" xmlns:xlink="http://www.w3.org/1999/xlink" width="156.259" height="32" viewBox="0 0 156.259 32">
  <defs>
    <radialGradient id="radial-gradient" cx="1.259" cy="1.239" r="1.669" gradientTransform="translate(0)" gradientUnits="objectBoundingBox">
      <stop offset="0.352" stop-color="#578e31"/>
      <stop offset="1" stop-color="#a8ca57"/>
    </radialGradient>
  </defs>
  <g id="logo_lemonade" transform="translate(-32 -21)">
    <path id="Caminho_1" data-name="Caminho 1" d="M-118.481-184.846l.147,2.045a6.18,6.18,0,0,1,5.088-2.372,5.138,5.138,0,0,1,4.188,1.652,7.711,7.711,0,0,1,1.406,4.941v11.434h-4.727v-11.32a3.067,3.067,0,0,0-.655-2.184,2.929,2.929,0,0,0-2.175-.679,3.252,3.252,0,0,0-2.994,1.7v12.481h-4.727v-17.7Z" transform="translate(240.067 217.179)" fill="#4b4e51"/>
    <path id="Caminho_2" data-name="Caminho 2" d="M-75.658-167.147a5.22,5.22,0,0,1-.474-1.587A5.72,5.72,0,0,1-80.6-166.82a6.281,6.281,0,0,1-4.31-1.505,4.837,4.837,0,0,1-1.71-3.795,5,5,0,0,1,2.086-4.319,10.293,10.293,0,0,1,6.028-1.522h2.176v-1.014a2.916,2.916,0,0,0-.63-1.963,2.475,2.475,0,0,0-1.987-.737,2.818,2.818,0,0,0-1.874.573,1.946,1.946,0,0,0-.679,1.57h-4.728a4.748,4.748,0,0,1,.949-2.846,6.276,6.276,0,0,1,2.683-2.054,9.777,9.777,0,0,1,3.893-.744,7.725,7.725,0,0,1,5.194,1.644,5.752,5.752,0,0,1,1.922,4.621v7.672a8.449,8.449,0,0,0,.7,3.811v.279Zm-3.91-3.288a4.078,4.078,0,0,0,1.931-.466,3.065,3.065,0,0,0,1.309-1.251v-3.043H-78.1q-3.551,0-3.779,2.454l-.016.278a1.891,1.891,0,0,0,.621,1.456A2.413,2.413,0,0,0-79.568-170.435Z" transform="translate(221.911 217.179)" fill="#4b4e51"/>
    <path id="Caminho_3" data-name="Caminho 3" d="M-50.762-183.226a10.669,10.669,0,0,1,1.857-6.592,6.025,6.025,0,0,1,5.079-2.454,5.42,5.42,0,0,1,4.269,1.931v-9.03h4.745v25.125h-4.27l-.229-1.881a5.564,5.564,0,0,1-4.548,2.208,6.006,6.006,0,0,1-5.014-2.462A11.008,11.008,0,0,1-50.762-183.226Zm4.727.352a6.987,6.987,0,0,0,.868,3.818,2.823,2.823,0,0,0,2.519,1.327,3.162,3.162,0,0,0,3.091-1.851v-7a3.117,3.117,0,0,0-3.059-1.851Q-46.034-188.427-46.035-182.874Z" transform="translate(203.983 224.278)" fill="#4b4e51"/>
    <path id="Caminho_4" data-name="Caminho 4" d="M-4.029-166.82a8.69,8.69,0,0,1-6.339-2.388,8.488,8.488,0,0,1-2.445-6.363v-.458a10.7,10.7,0,0,1,1.03-4.769,7.568,7.568,0,0,1,2.92-3.239,8.194,8.194,0,0,1,4.311-1.137,7.347,7.347,0,0,1,5.717,2.29,9.308,9.308,0,0,1,2.086,6.494v1.931H-8.02a4.389,4.389,0,0,0,1.382,2.78,4.177,4.177,0,0,0,2.92,1.047,5.1,5.1,0,0,0,4.27-1.979l2.323,2.6a7.092,7.092,0,0,1-2.879,2.348A9.446,9.446,0,0,1-4.029-166.82Zm-.54-14.542a2.955,2.955,0,0,0-2.282.953,4.938,4.938,0,0,0-1.121,2.728H-1.4v-.378a3.518,3.518,0,0,0-.851-2.44A3.046,3.046,0,0,0-4.569-181.362Z" transform="translate(185.009 217.179)" fill="#4b4e51"/>
    <path id="Caminho_5" data-name="Caminho 5" d="M-162.931-200.854v.008a.875.875,0,0,0,.862.857h.1a6.331,6.331,0,0,0,6.331-6.331v-.008a.875.875,0,0,0-.862-.857h-.1A6.33,6.33,0,0,0-162.931-200.854Z" transform="translate(260.067 228.184)" fill="#a8ca57"/>
    <path id="Caminho_6" data-name="Caminho 6" d="M-148.106-176.208a12.46,12.46,0,0,0,.7-5.383,12.469,12.469,0,0,0-11.3-11.268,12.449,12.449,0,0,0-5.671.828,5.7,5.7,0,0,1-3.736.235,2.433,2.433,0,0,0-1.315-.021,2.368,2.368,0,0,0-1.69,1.69,2.428,2.428,0,0,0,.021,1.313,5.681,5.681,0,0,1-.239,3.727,12.45,12.45,0,0,0-.84,5.676,12.475,12.475,0,0,0,11.422,11.331,12.422,12.422,0,0,0,5.547-.838,6.043,6.043,0,0,1,4.04-.171,2.406,2.406,0,0,0,1.136.07,2.4,2.4,0,0,0,1.935-1.944,2.4,2.4,0,0,0-.121-1.265A5.712,5.712,0,0,1-148.106-176.208Z" transform="translate(264.709 221.045)" fill="url(#radial-gradient)"/>
    <path id="Caminho_7" data-name="Caminho 7" d="M-288.294-176.88h10.42v3.943H-293.2v-23.817h4.907Z" transform="translate(325.201 222.969)" fill="#4b4e51"/>
    <path id="Caminho_8" data-name="Caminho 8" d="M-250.034-166.82a8.688,8.688,0,0,1-6.339-2.388,8.489,8.489,0,0,1-2.445-6.363v-.458a10.7,10.7,0,0,1,1.031-4.769,7.565,7.565,0,0,1,2.92-3.239,8.194,8.194,0,0,1,4.31-1.137,7.346,7.346,0,0,1,5.717,2.29,9.308,9.308,0,0,1,2.086,6.494v1.931h-11.27a4.389,4.389,0,0,0,1.382,2.78,4.176,4.176,0,0,0,2.92,1.047,5.1,5.1,0,0,0,4.269-1.979l2.323,2.6a7.1,7.1,0,0,1-2.879,2.348A9.448,9.448,0,0,1-250.034-166.82Zm-.54-14.542a2.954,2.954,0,0,0-2.282.953,4.934,4.934,0,0,0-1.12,2.728h6.576v-.378a3.521,3.521,0,0,0-.85-2.44A3.047,3.047,0,0,0-250.574-181.362Z" transform="translate(308.01 217.179)" fill="#4b4e51"/>
    <path id="Caminho_9" data-name="Caminho 9" d="M-216.894-184.846l.147,1.979a6.222,6.222,0,0,1,5.088-2.306,4.721,4.721,0,0,1,4.695,2.7,6.077,6.077,0,0,1,5.316-2.7,5.279,5.279,0,0,1,4.286,1.677,7.707,7.707,0,0,1,1.407,5.046v11.3H-200.7v-11.287a3.373,3.373,0,0,0-.589-2.2,2.611,2.611,0,0,0-2.078-.695,2.95,2.95,0,0,0-2.944,2.028l.016,12.154h-4.727v-11.271a3.33,3.33,0,0,0-.605-2.225,2.635,2.635,0,0,0-2.061-.687,3.063,3.063,0,0,0-2.912,1.668v12.514h-4.728v-17.7Z" transform="translate(289.264 217.179)" fill="#4b4e51"/>
  </g>
</svg>
